<?xml version="1.0" encoding="UTF-8"?>
<svg id="Layer_1" data-name="Layer 1" xmlns="http://www.w3.org/2000/svg" viewBox="220 595 140 140">
  <defs>
    <style>
      .cls-2 {
        fill: #30bcb1;
        stroke-width: 0px;
      }

      .cls-3 {
        fill: #ffe6cd;
        stroke-width: 0px;
      }
    </style>
  </defs>
  <g>
    <circle class="cls-2" cx="289.42" cy="665.31" r="68.04"/>
    <g>
      <path class="cls-3" d="M278.51,611.72h3.09c.2,1.53.4,3.05.59,4.57,1.24,10.46,2.46,20.91,3.73,31.37.22,1.81-.05,3.41-.97,5.02-3.61,6.31-7.13,12.66-10.66,19.01-.66,1.19-1.51,2.12-2.78,2.7-10.94,5.03-21.87,10.08-32.8,15.13-.24.11-.5.18-.89.33-.52-.86-1.03-1.69-1.6-2.62.63-.5,1.17-.94,1.72-1.35,9.24-6.91,18.51-13.8,27.72-20.75.96-.72,1.81-1.72,2.42-2.76,2.09-3.55,4.08-7.15,6.03-10.78.46-.86.8-1.88.89-2.85,1.13-11.91,2.21-23.84,3.3-35.75.03-.38.12-.75.2-1.27Z"/>
      <path class="cls-3" d="M246.18,703.94c-.52-.89-1.01-1.71-1.54-2.61.4-.34.73-.66,1.09-.93,9.47-7.08,18.94-14.14,28.4-21.23,1.1-.82,2.27-1.27,3.66-1.29,7.54-.07,15.09-.17,22.63-.28,1.29-.02,2.44.27,3.5,1.02,9.83,6.96,19.68,13.91,29.52,20.87.22.15.41.34.77.64-.48.86-.96,1.71-1.49,2.64-.47-.17-.84-.27-1.18-.42-10.85-4.66-21.69-9.34-32.56-13.95-1.14-.48-2.46-.73-3.71-.75-3.96-.06-7.93-.02-11.9.12-1.24.04-2.57.31-3.69.83-10.75,4.89-21.46,9.86-32.19,14.81-.38.17-.77.32-1.3.53Z"/>
      <path class="cls-3" d="M294.9,611.53h3.12c.18,1.39.37,2.76.53,4.13,1.28,10.84,2.53,21.69,3.87,32.52.14,1.12.58,2.26,1.14,3.25,2,3.51,4.06,6.99,6.2,10.41.62.99,1.45,1.95,2.4,2.62,9.65,6.88,19.34,13.7,29.02,20.54.31.22.61.46,1.05.8-.5.9-.97,1.75-1.5,2.7-.53-.2-.96-.35-1.38-.53-10.81-4.64-21.62-9.3-32.44-13.92-1.39-.59-2.39-1.49-3.16-2.79-3.61-6.13-7.22-12.25-10.91-18.32-1.06-1.74-1.52-3.44-1.31-5.5,1.12-11.49,2.13-22.98,3.19-34.47.04-.42.11-.84.2-1.44Z"/>
    </g>
  </g>
</svg>